<mxfile host="app.diagrams.net" modified="2023-12-24T01:38:33.137Z" agent="Mozilla/5.0 (X11; Linux x86_64; rv:120.0) Gecko/20100101 Firefox/120.0" etag="Z2xifXLWfWwGsYg8mv1w" version="22.1.11" type="device">
  <diagram name="Page-1" id="2YBvvXClWsGukQMizWep">
    <mxGraphModel dx="1193" dy="683" grid="1" gridSize="10" guides="1" tooltips="1" connect="1" arrows="1" fold="1" page="1" pageScale="1" pageWidth="850" pageHeight="1100" background="none" math="0" shadow="0">
      <root>
        <mxCell id="0" />
        <mxCell id="1" parent="0" />
        <mxCell id="aM9ryv3xv72pqoxQDRHE-1" value="Group" style="shape=umlLifeline;perimeter=lifelinePerimeter;whiteSpace=wrap;html=1;container=0;dropTarget=0;collapsible=0;recursiveResize=0;outlineConnect=0;portConstraint=eastwest;newEdgeStyle={&quot;edgeStyle&quot;:&quot;elbowEdgeStyle&quot;,&quot;elbow&quot;:&quot;vertical&quot;,&quot;curved&quot;:0,&quot;rounded&quot;:0};labelBackgroundColor=none;fillColor=#09555B;strokeColor=#BAC8D3;fontColor=#EEEEEE;rounded=1;" parent="1" vertex="1">
          <mxGeometry x="40" y="40" width="120" height="440" as="geometry" />
        </mxCell>
        <mxCell id="aM9ryv3xv72pqoxQDRHE-2" value="" style="html=1;points=[];perimeter=orthogonalPerimeter;outlineConnect=0;targetShapes=umlLifeline;portConstraint=eastwest;newEdgeStyle={&quot;edgeStyle&quot;:&quot;elbowEdgeStyle&quot;,&quot;elbow&quot;:&quot;vertical&quot;,&quot;curved&quot;:0,&quot;rounded&quot;:0};labelBackgroundColor=none;fillColor=#09555B;strokeColor=#BAC8D3;fontColor=#EEEEEE;rounded=1;" parent="aM9ryv3xv72pqoxQDRHE-1" vertex="1">
          <mxGeometry x="55" y="70" width="10" height="290" as="geometry" />
        </mxCell>
        <mxCell id="aM9ryv3xv72pqoxQDRHE-3" value="&lt;div&gt;goToRestaurant()&lt;/div&gt;" style="html=1;verticalAlign=bottom;startArrow=oval;endArrow=block;startSize=8;edgeStyle=elbowEdgeStyle;elbow=vertical;curved=0;rounded=1;labelBackgroundColor=none;strokeColor=#0B4D6A;fontColor=default;" parent="aM9ryv3xv72pqoxQDRHE-1" target="aM9ryv3xv72pqoxQDRHE-2" edge="1">
          <mxGeometry x="-0.0563" y="10" relative="1" as="geometry">
            <mxPoint x="-30" y="80" as="sourcePoint" />
            <mxPoint as="offset" />
          </mxGeometry>
        </mxCell>
        <mxCell id="G1Px5lpkDxPumZC5LT-h-14" value="&lt;div&gt;waitFood()&lt;/div&gt;" style="html=1;align=left;spacingLeft=2;endArrow=block;rounded=1;edgeStyle=orthogonalEdgeStyle;curved=0;rounded=0;labelBackgroundColor=none;strokeColor=#0B4D6A;fontColor=default;" edge="1" target="aM9ryv3xv72pqoxQDRHE-2" parent="aM9ryv3xv72pqoxQDRHE-1">
          <mxGeometry relative="1" as="geometry">
            <mxPoint x="65" y="160" as="sourcePoint" />
            <Array as="points">
              <mxPoint x="95" y="160" />
              <mxPoint x="95" y="220" />
            </Array>
            <mxPoint x="65" y="180" as="targetPoint" />
          </mxGeometry>
        </mxCell>
        <mxCell id="G1Px5lpkDxPumZC5LT-h-31" value="eat()" style="html=1;align=left;spacingLeft=2;endArrow=block;rounded=1;edgeStyle=orthogonalEdgeStyle;curved=0;rounded=0;labelBackgroundColor=none;strokeColor=#0B4D6A;fontColor=default;" edge="1" parent="aM9ryv3xv72pqoxQDRHE-1" source="aM9ryv3xv72pqoxQDRHE-2" target="aM9ryv3xv72pqoxQDRHE-2">
          <mxGeometry relative="1" as="geometry">
            <mxPoint x="70" y="250" as="sourcePoint" />
            <Array as="points">
              <mxPoint x="100" y="250" />
              <mxPoint x="100" y="290" />
            </Array>
            <mxPoint x="70" y="310" as="targetPoint" />
          </mxGeometry>
        </mxCell>
        <mxCell id="aM9ryv3xv72pqoxQDRHE-5" value="Receptionist" style="shape=umlLifeline;perimeter=lifelinePerimeter;whiteSpace=wrap;html=1;container=0;dropTarget=0;collapsible=0;recursiveResize=0;outlineConnect=0;portConstraint=eastwest;newEdgeStyle={&quot;edgeStyle&quot;:&quot;elbowEdgeStyle&quot;,&quot;elbow&quot;:&quot;vertical&quot;,&quot;curved&quot;:0,&quot;rounded&quot;:0};labelBackgroundColor=none;fillColor=#09555B;strokeColor=#BAC8D3;fontColor=#EEEEEE;rounded=1;" parent="1" vertex="1">
          <mxGeometry x="240" y="40" width="120" height="440" as="geometry" />
        </mxCell>
        <mxCell id="aM9ryv3xv72pqoxQDRHE-6" value="" style="html=1;points=[];perimeter=orthogonalPerimeter;outlineConnect=0;targetShapes=umlLifeline;portConstraint=eastwest;newEdgeStyle={&quot;edgeStyle&quot;:&quot;elbowEdgeStyle&quot;,&quot;elbow&quot;:&quot;vertical&quot;,&quot;curved&quot;:0,&quot;rounded&quot;:0};labelBackgroundColor=none;fillColor=#09555B;strokeColor=#BAC8D3;fontColor=#EEEEEE;rounded=1;" parent="aM9ryv3xv72pqoxQDRHE-5" vertex="1">
          <mxGeometry x="55" y="70" width="10" height="60" as="geometry" />
        </mxCell>
        <mxCell id="G1Px5lpkDxPumZC5LT-h-36" value="" style="html=1;points=[[0,0,0,0,5],[0,1,0,0,-5],[1,0,0,0,5],[1,1,0,0,-5]];perimeter=orthogonalPerimeter;outlineConnect=0;targetShapes=umlLifeline;portConstraint=eastwest;newEdgeStyle={&quot;curved&quot;:0,&quot;rounded&quot;:0};labelBackgroundColor=none;fillColor=#09555B;strokeColor=#BAC8D3;fontColor=#EEEEEE;rounded=1;" vertex="1" parent="aM9ryv3xv72pqoxQDRHE-5">
          <mxGeometry x="55" y="330" width="10" height="60" as="geometry" />
        </mxCell>
        <mxCell id="G1Px5lpkDxPumZC5LT-h-37" value="receivePayment()" style="html=1;align=left;spacingLeft=2;endArrow=block;rounded=1;edgeStyle=orthogonalEdgeStyle;curved=0;rounded=0;labelBackgroundColor=none;strokeColor=#0B4D6A;fontColor=default;" edge="1" target="G1Px5lpkDxPumZC5LT-h-36" parent="aM9ryv3xv72pqoxQDRHE-5">
          <mxGeometry relative="1" as="geometry">
            <mxPoint x="65" y="350" as="sourcePoint" />
            <Array as="points">
              <mxPoint x="95" y="350" />
              <mxPoint x="95" y="370" />
            </Array>
          </mxGeometry>
        </mxCell>
        <mxCell id="G1Px5lpkDxPumZC5LT-h-3" value="Waiter" style="shape=umlLifeline;perimeter=lifelinePerimeter;whiteSpace=wrap;html=1;container=0;dropTarget=0;collapsible=0;recursiveResize=0;outlineConnect=0;portConstraint=eastwest;newEdgeStyle={&quot;edgeStyle&quot;:&quot;elbowEdgeStyle&quot;,&quot;elbow&quot;:&quot;vertical&quot;,&quot;curved&quot;:0,&quot;rounded&quot;:0};labelBackgroundColor=none;fillColor=#09555B;strokeColor=#BAC8D3;fontColor=#EEEEEE;rounded=1;" vertex="1" parent="1">
          <mxGeometry x="440" y="40" width="120" height="440" as="geometry" />
        </mxCell>
        <mxCell id="G1Px5lpkDxPumZC5LT-h-4" value="" style="html=1;points=[];perimeter=orthogonalPerimeter;outlineConnect=0;targetShapes=umlLifeline;portConstraint=eastwest;newEdgeStyle={&quot;edgeStyle&quot;:&quot;elbowEdgeStyle&quot;,&quot;elbow&quot;:&quot;vertical&quot;,&quot;curved&quot;:0,&quot;rounded&quot;:0};labelBackgroundColor=none;fillColor=#09555B;strokeColor=#BAC8D3;fontColor=#EEEEEE;rounded=1;" vertex="1" parent="G1Px5lpkDxPumZC5LT-h-3">
          <mxGeometry x="55" y="140" width="10" height="120" as="geometry" />
        </mxCell>
        <mxCell id="G1Px5lpkDxPumZC5LT-h-24" value="waitForClientOrChef()" style="html=1;align=left;spacingLeft=2;endArrow=block;rounded=1;edgeStyle=orthogonalEdgeStyle;curved=0;rounded=0;labelBackgroundColor=none;strokeColor=#0B4D6A;fontColor=default;" edge="1" parent="G1Px5lpkDxPumZC5LT-h-3" source="G1Px5lpkDxPumZC5LT-h-4" target="G1Px5lpkDxPumZC5LT-h-4">
          <mxGeometry relative="1" as="geometry">
            <mxPoint x="70" y="190" as="sourcePoint" />
            <Array as="points">
              <mxPoint x="105" y="190" />
              <mxPoint x="105" y="210" />
            </Array>
            <mxPoint x="70" y="210" as="targetPoint" />
          </mxGeometry>
        </mxCell>
        <mxCell id="G1Px5lpkDxPumZC5LT-h-5" value="Chef" style="shape=umlLifeline;perimeter=lifelinePerimeter;whiteSpace=wrap;html=1;container=0;dropTarget=0;collapsible=0;recursiveResize=0;outlineConnect=0;portConstraint=eastwest;newEdgeStyle={&quot;edgeStyle&quot;:&quot;elbowEdgeStyle&quot;,&quot;elbow&quot;:&quot;vertical&quot;,&quot;curved&quot;:0,&quot;rounded&quot;:0};labelBackgroundColor=none;fillColor=#09555B;strokeColor=#BAC8D3;fontColor=#EEEEEE;rounded=1;" vertex="1" parent="1">
          <mxGeometry x="640" y="40" width="120" height="440" as="geometry" />
        </mxCell>
        <mxCell id="G1Px5lpkDxPumZC5LT-h-6" value="" style="html=1;points=[];perimeter=orthogonalPerimeter;outlineConnect=0;targetShapes=umlLifeline;portConstraint=eastwest;newEdgeStyle={&quot;edgeStyle&quot;:&quot;elbowEdgeStyle&quot;,&quot;elbow&quot;:&quot;vertical&quot;,&quot;curved&quot;:0,&quot;rounded&quot;:0};labelBackgroundColor=none;fillColor=#09555B;strokeColor=#BAC8D3;fontColor=#EEEEEE;rounded=1;" vertex="1" parent="G1Px5lpkDxPumZC5LT-h-5">
          <mxGeometry x="55" y="150" width="10" height="90" as="geometry" />
        </mxCell>
        <mxCell id="G1Px5lpkDxPumZC5LT-h-21" value="processOrder()" style="html=1;align=left;spacingLeft=2;endArrow=block;rounded=1;edgeStyle=orthogonalEdgeStyle;curved=0;rounded=0;labelBackgroundColor=none;strokeColor=#0B4D6A;fontColor=default;" edge="1" parent="G1Px5lpkDxPumZC5LT-h-5" source="G1Px5lpkDxPumZC5LT-h-6" target="G1Px5lpkDxPumZC5LT-h-6">
          <mxGeometry relative="1" as="geometry">
            <mxPoint x="70" y="190" as="sourcePoint" />
            <Array as="points">
              <mxPoint x="100" y="190" />
              <mxPoint x="100" y="210" />
            </Array>
            <mxPoint x="70" y="210" as="targetPoint" />
          </mxGeometry>
        </mxCell>
        <mxCell id="G1Px5lpkDxPumZC5LT-h-11" value="provideTableOrWaitingRoom()" style="html=1;verticalAlign=bottom;endArrow=open;dashed=1;endSize=8;curved=0;rounded=1;labelBackgroundColor=none;strokeColor=#0B4D6A;fontColor=default;" edge="1" parent="1" target="aM9ryv3xv72pqoxQDRHE-1">
          <mxGeometry relative="1" as="geometry">
            <mxPoint x="300" y="150" as="sourcePoint" />
            <mxPoint x="220" y="150" as="targetPoint" />
          </mxGeometry>
        </mxCell>
        <mxCell id="G1Px5lpkDxPumZC5LT-h-17" value="checkInAtReception()" style="html=1;verticalAlign=bottom;endArrow=block;curved=0;rounded=1;labelBackgroundColor=none;strokeColor=#0B4D6A;fontColor=default;" edge="1" parent="1" source="aM9ryv3xv72pqoxQDRHE-2" target="aM9ryv3xv72pqoxQDRHE-6">
          <mxGeometry width="80" relative="1" as="geometry">
            <mxPoint x="110" y="130" as="sourcePoint" />
            <mxPoint x="180" y="130" as="targetPoint" />
            <Array as="points">
              <mxPoint x="240" y="130" />
            </Array>
          </mxGeometry>
        </mxCell>
        <mxCell id="G1Px5lpkDxPumZC5LT-h-18" value="orderFood()" style="html=1;verticalAlign=bottom;endArrow=block;curved=0;rounded=1;labelBackgroundColor=none;strokeColor=#0B4D6A;fontColor=default;" edge="1" parent="1" target="G1Px5lpkDxPumZC5LT-h-3">
          <mxGeometry x="-0.417" width="80" relative="1" as="geometry">
            <mxPoint x="105" y="189.66" as="sourcePoint" />
            <mxPoint x="300" y="189.66" as="targetPoint" />
            <Array as="points">
              <mxPoint x="245" y="189.66" />
            </Array>
            <mxPoint as="offset" />
          </mxGeometry>
        </mxCell>
        <mxCell id="G1Px5lpkDxPumZC5LT-h-19" value="informChef()" style="html=1;verticalAlign=bottom;endArrow=block;curved=0;rounded=1;labelBackgroundColor=none;strokeColor=#0B4D6A;fontColor=default;" edge="1" parent="1">
          <mxGeometry width="80" relative="1" as="geometry">
            <mxPoint x="505" y="200" as="sourcePoint" />
            <mxPoint x="695" y="200" as="targetPoint" />
          </mxGeometry>
        </mxCell>
        <mxCell id="G1Px5lpkDxPumZC5LT-h-20" value="order acknowledgment" style="html=1;verticalAlign=bottom;endArrow=open;dashed=1;endSize=8;curved=0;rounded=1;labelBackgroundColor=none;strokeColor=#0B4D6A;fontColor=default;" edge="1" parent="1" target="G1Px5lpkDxPumZC5LT-h-4">
          <mxGeometry relative="1" as="geometry">
            <mxPoint x="695" y="220" as="sourcePoint" />
            <mxPoint x="510" y="220" as="targetPoint" />
          </mxGeometry>
        </mxCell>
        <mxCell id="G1Px5lpkDxPumZC5LT-h-22" value="signal new request" style="html=1;verticalAlign=bottom;endArrow=open;dashed=1;endSize=8;curved=0;rounded=1;labelBackgroundColor=none;strokeColor=#0B4D6A;fontColor=default;" edge="1" parent="1">
          <mxGeometry relative="1" as="geometry">
            <mxPoint x="695" y="270" as="sourcePoint" />
            <mxPoint x="505" y="270" as="targetPoint" />
          </mxGeometry>
        </mxCell>
        <mxCell id="G1Px5lpkDxPumZC5LT-h-25" value="takeFoodToTable()" style="html=1;verticalAlign=bottom;endArrow=block;curved=0;rounded=1;labelBackgroundColor=none;strokeColor=#0B4D6A;fontColor=default;" edge="1" parent="1">
          <mxGeometry width="80" relative="1" as="geometry">
            <mxPoint x="495" y="280" as="sourcePoint" />
            <mxPoint x="105" y="280" as="targetPoint" />
          </mxGeometry>
        </mxCell>
        <mxCell id="G1Px5lpkDxPumZC5LT-h-33" value="checkInAtReception()" style="html=1;verticalAlign=bottom;endArrow=block;curved=0;rounded=1;labelBackgroundColor=none;strokeColor=#0B4D6A;fontColor=default;" edge="1" parent="1" source="aM9ryv3xv72pqoxQDRHE-2">
          <mxGeometry width="80" relative="1" as="geometry">
            <mxPoint x="110" y="380" as="sourcePoint" />
            <mxPoint x="295" y="380.0000000000001" as="targetPoint" />
            <Array as="points">
              <mxPoint x="245" y="380" />
            </Array>
          </mxGeometry>
        </mxCell>
      </root>
    </mxGraphModel>
  </diagram>
</mxfile>
